<svg xmlns="http://www.w3.org/2000/svg" viewBox="0 0 1400 800" width="1400" height="800" style="background-color: #0f1419; font-family: 'Consolas', 'Fira Code', 'DejaVu Sans Mono', monospace; font-size: 14px;">
  <text x="351" y="215" fill="#38bdf8">┌</text>
  <text x="371" y="215" fill="#f3f4f6">O</text>
  <text x="381" y="215" fill="#f3f4f6">V</text>
  <text x="391" y="215" fill="#f3f4f6">E</text>
  <text x="401" y="215" fill="#f3f4f6">R</text>
  <text x="411" y="215" fill="#f3f4f6">L</text>
  <text x="421" y="215" fill="#f3f4f6">A</text>
  <text x="431" y="215" fill="#f3f4f6">Y</text>
  <text x="451" y="215" fill="#f3f4f6">C</text>
  <text x="461" y="215" fill="#f3f4f6">O</text>
  <text x="471" y="215" fill="#f3f4f6">N</text>
  <text x="481" y="215" fill="#f3f4f6">T</text>
  <text x="491" y="215" fill="#f3f4f6">R</text>
  <text x="501" y="215" fill="#f3f4f6">O</text>
  <text x="511" y="215" fill="#f3f4f6">L</text>
  <text x="531" y="215" fill="#f3f4f6">C</text>
  <text x="541" y="215" fill="#f3f4f6">E</text>
  <text x="551" y="215" fill="#f3f4f6">N</text>
  <text x="561" y="215" fill="#f3f4f6">T</text>
  <text x="571" y="215" fill="#f3f4f6">E</text>
  <text x="581" y="215" fill="#f3f4f6">R</text>
  <text x="601" y="215" fill="#f3f4f6">[</text>
  <text x="611" y="215" fill="#f3f4f6">E</text>
  <text x="621" y="215" fill="#f3f4f6">S</text>
  <text x="631" y="215" fill="#f3f4f6">C</text>
  <text x="651" y="215" fill="#f3f4f6">t</text>
  <text x="661" y="215" fill="#f3f4f6">o</text>
  <text x="681" y="215" fill="#f3f4f6">c</text>
  <text x="691" y="215" fill="#f3f4f6">l</text>
  <text x="701" y="215" fill="#f3f4f6">o</text>
  <text x="711" y="215" fill="#f3f4f6">s</text>
  <text x="721" y="215" fill="#f3f4f6">e</text>
  <text x="731" y="215" fill="#f3f4f6">]</text>
  <text x="751" y="215" fill="#38bdf8">─</text>
  <text x="761" y="215" fill="#38bdf8">─</text>
  <text x="771" y="215" fill="#38bdf8">─</text>
  <text x="781" y="215" fill="#38bdf8">─</text>
  <text x="791" y="215" fill="#38bdf8">─</text>
  <text x="801" y="215" fill="#38bdf8">─</text>
  <text x="811" y="215" fill="#38bdf8">─</text>
  <text x="821" y="215" fill="#38bdf8">─</text>
  <text x="831" y="215" fill="#38bdf8">─</text>
  <text x="841" y="215" fill="#38bdf8">─</text>
  <text x="851" y="215" fill="#38bdf8">─</text>
  <text x="861" y="215" fill="#38bdf8">─</text>
  <text x="871" y="215" fill="#38bdf8">─</text>
  <text x="881" y="215" fill="#38bdf8">─</text>
  <text x="891" y="215" fill="#38bdf8">─</text>
  <text x="901" y="215" fill="#38bdf8">─</text>
  <text x="911" y="215" fill="#38bdf8">─</text>
  <text x="921" y="215" fill="#38bdf8">─</text>
  <text x="931" y="215" fill="#38bdf8">─</text>
  <text x="941" y="215" fill="#38bdf8">─</text>
  <text x="951" y="215" fill="#38bdf8">─</text>
  <text x="961" y="215" fill="#38bdf8">─</text>
  <text x="971" y="215" fill="#38bdf8">─</text>
  <text x="981" y="215" fill="#38bdf8">─</text>
  <text x="991" y="215" fill="#38bdf8">─</text>
  <text x="1001" y="215" fill="#38bdf8">─</text>
  <text x="1011" y="215" fill="#38bdf8">─</text>
  <text x="1021" y="215" fill="#38bdf8">─</text>
  <text x="1031" y="215" fill="#38bdf8">─</text>
  <text x="1041" y="215" fill="#38bdf8">┐</text>
  <text x="351" y="235" fill="#38bdf8">│</text>
  <text x="361" y="235" fill="#facc15">[</text>
  <text x="381" y="235" fill="#facc15">]</text>
  <text x="401" y="235" fill="#facc15">1</text>
  <text x="411" y="235" fill="#facc15">.</text>
  <text x="431" y="235" fill="#facc15">M</text>
  <text x="441" y="235" fill="#facc15">a</text>
  <text x="451" y="235" fill="#facc15">s</text>
  <text x="461" y="235" fill="#facc15">t</text>
  <text x="471" y="235" fill="#facc15">e</text>
  <text x="481" y="235" fill="#facc15">r</text>
  <text x="501" y="235" fill="#facc15">O</text>
  <text x="511" y="235" fill="#facc15">v</text>
  <text x="521" y="235" fill="#facc15">e</text>
  <text x="531" y="235" fill="#facc15">r</text>
  <text x="541" y="235" fill="#facc15">l</text>
  <text x="551" y="235" fill="#facc15">a</text>
  <text x="561" y="235" fill="#facc15">y</text>
  <text x="581" y="235" fill="#facc15">V</text>
  <text x="591" y="235" fill="#facc15">i</text>
  <text x="601" y="235" fill="#facc15">s</text>
  <text x="611" y="235" fill="#facc15">i</text>
  <text x="621" y="235" fill="#facc15">b</text>
  <text x="631" y="235" fill="#facc15">i</text>
  <text x="641" y="235" fill="#facc15">l</text>
  <text x="651" y="235" fill="#facc15">i</text>
  <text x="661" y="235" fill="#facc15">t</text>
  <text x="671" y="235" fill="#facc15">y</text>
  <text x="1041" y="235" fill="#38bdf8">│</text>
  <text x="351" y="255" fill="#38bdf8">│</text>
  <text x="361" y="255" fill="#f3f4f6">[</text>
  <text x="381" y="255" fill="#f3f4f6">]</text>
  <text x="401" y="255" fill="#f3f4f6">2</text>
  <text x="411" y="255" fill="#f3f4f6">.</text>
  <text x="431" y="255" fill="#f3f4f6">E</text>
  <text x="441" y="255" fill="#f3f4f6">D</text>
  <text x="451" y="255" fill="#f3f4f6">I</text>
  <text x="461" y="255" fill="#f3f4f6">T</text>
  <text x="481" y="255" fill="#f3f4f6">M</text>
  <text x="491" y="255" fill="#f3f4f6">O</text>
  <text x="501" y="255" fill="#f3f4f6">D</text>
  <text x="511" y="255" fill="#f3f4f6">E</text>
  <text x="531" y="255" fill="#f3f4f6">(</text>
  <text x="541" y="255" fill="#f3f4f6">U</text>
  <text x="551" y="255" fill="#f3f4f6">n</text>
  <text x="561" y="255" fill="#f3f4f6">l</text>
  <text x="571" y="255" fill="#f3f4f6">o</text>
  <text x="581" y="255" fill="#f3f4f6">c</text>
  <text x="591" y="255" fill="#f3f4f6">k</text>
  <text x="611" y="255" fill="#f3f4f6">t</text>
  <text x="621" y="255" fill="#f3f4f6">o</text>
  <text x="641" y="255" fill="#f3f4f6">M</text>
  <text x="651" y="255" fill="#f3f4f6">o</text>
  <text x="661" y="255" fill="#f3f4f6">v</text>
  <text x="671" y="255" fill="#f3f4f6">e</text>
  <text x="681" y="255" fill="#f3f4f6">/</text>
  <text x="691" y="255" fill="#f3f4f6">R</text>
  <text x="701" y="255" fill="#f3f4f6">e</text>
  <text x="711" y="255" fill="#f3f4f6">s</text>
  <text x="721" y="255" fill="#f3f4f6">i</text>
  <text x="731" y="255" fill="#f3f4f6">z</text>
  <text x="741" y="255" fill="#f3f4f6">e</text>
  <text x="751" y="255" fill="#f3f4f6">/</text>
  <text x="761" y="255" fill="#f3f4f6">S</text>
  <text x="771" y="255" fill="#f3f4f6">w</text>
  <text x="781" y="255" fill="#f3f4f6">i</text>
  <text x="791" y="255" fill="#f3f4f6">t</text>
  <text x="801" y="255" fill="#f3f4f6">c</text>
  <text x="811" y="255" fill="#f3f4f6">h</text>
  <text x="831" y="255" fill="#f3f4f6">T</text>
  <text x="841" y="255" fill="#f3f4f6">a</text>
  <text x="851" y="255" fill="#f3f4f6">b</text>
  <text x="861" y="255" fill="#f3f4f6">s</text>
  <text x="871" y="255" fill="#f3f4f6">)</text>
  <text x="1041" y="255" fill="#38bdf8">│</text>
  <text x="351" y="275" fill="#38bdf8">│</text>
  <text x="1041" y="275" fill="#38bdf8">│</text>
  <text x="351" y="295" fill="#38bdf8">│</text>
  <text x="361" y="295" fill="#6b7280">─</text>
  <text x="371" y="295" fill="#6b7280">─</text>
  <text x="381" y="295" fill="#6b7280">─</text>
  <text x="391" y="295" fill="#6b7280">─</text>
  <text x="401" y="295" fill="#6b7280">─</text>
  <text x="411" y="295" fill="#6b7280">─</text>
  <text x="421" y="295" fill="#6b7280">─</text>
  <text x="431" y="295" fill="#6b7280">─</text>
  <text x="441" y="295" fill="#6b7280">─</text>
  <text x="451" y="295" fill="#6b7280">─</text>
  <text x="461" y="295" fill="#6b7280">─</text>
  <text x="471" y="295" fill="#6b7280">─</text>
  <text x="481" y="295" fill="#6b7280">─</text>
  <text x="491" y="295" fill="#6b7280">─</text>
  <text x="501" y="295" fill="#6b7280">─</text>
  <text x="511" y="295" fill="#6b7280">─</text>
  <text x="521" y="295" fill="#6b7280">─</text>
  <text x="531" y="295" fill="#6b7280">─</text>
  <text x="541" y="295" fill="#6b7280">─</text>
  <text x="551" y="295" fill="#6b7280">─</text>
  <text x="561" y="295" fill="#6b7280">─</text>
  <text x="571" y="295" fill="#6b7280">─</text>
  <text x="581" y="295" fill="#6b7280">─</text>
  <text x="591" y="295" fill="#6b7280">─</text>
  <text x="601" y="295" fill="#6b7280">─</text>
  <text x="611" y="295" fill="#6b7280">─</text>
  <text x="621" y="295" fill="#6b7280">─</text>
  <text x="631" y="295" fill="#6b7280">─</text>
  <text x="641" y="295" fill="#6b7280">─</text>
  <text x="651" y="295" fill="#6b7280">─</text>
  <text x="661" y="295" fill="#6b7280">─</text>
  <text x="671" y="295" fill="#6b7280">─</text>
  <text x="681" y="295" fill="#6b7280">─</text>
  <text x="691" y="295" fill="#6b7280">─</text>
  <text x="701" y="295" fill="#6b7280">─</text>
  <text x="711" y="295" fill="#6b7280">─</text>
  <text x="721" y="295" fill="#6b7280">─</text>
  <text x="731" y="295" fill="#6b7280">─</text>
  <text x="741" y="295" fill="#6b7280">─</text>
  <text x="751" y="295" fill="#6b7280">─</text>
  <text x="761" y="295" fill="#6b7280">─</text>
  <text x="771" y="295" fill="#6b7280">─</text>
  <text x="781" y="295" fill="#6b7280">─</text>
  <text x="791" y="295" fill="#6b7280">─</text>
  <text x="801" y="295" fill="#6b7280">─</text>
  <text x="811" y="295" fill="#6b7280">─</text>
  <text x="821" y="295" fill="#6b7280">─</text>
  <text x="831" y="295" fill="#6b7280">─</text>
  <text x="841" y="295" fill="#6b7280">─</text>
  <text x="851" y="295" fill="#6b7280">─</text>
  <text x="861" y="295" fill="#6b7280">─</text>
  <text x="871" y="295" fill="#6b7280">─</text>
  <text x="881" y="295" fill="#6b7280">─</text>
  <text x="891" y="295" fill="#6b7280">─</text>
  <text x="901" y="295" fill="#6b7280">─</text>
  <text x="911" y="295" fill="#6b7280">─</text>
  <text x="921" y="295" fill="#6b7280">─</text>
  <text x="931" y="295" fill="#6b7280">─</text>
  <text x="941" y="295" fill="#6b7280">─</text>
  <text x="951" y="295" fill="#6b7280">─</text>
  <text x="961" y="295" fill="#6b7280">─</text>
  <text x="971" y="295" fill="#6b7280">─</text>
  <text x="981" y="295" fill="#6b7280">─</text>
  <text x="991" y="295" fill="#6b7280">─</text>
  <text x="1001" y="295" fill="#6b7280">─</text>
  <text x="1011" y="295" fill="#6b7280">─</text>
  <text x="1021" y="295" fill="#6b7280">─</text>
  <text x="1031" y="295" fill="#6b7280">─</text>
  <text x="1041" y="295" fill="#38bdf8">│</text>
  <text x="351" y="315" fill="#38bdf8">│</text>
  <text x="1041" y="315" fill="#38bdf8">│</text>
  <text x="351" y="335" fill="#38bdf8">│</text>
  <text x="561" y="335" fill="#6b7280">U</text>
  <text x="571" y="335" fill="#6b7280">s</text>
  <text x="581" y="335" fill="#6b7280">e</text>
  <text x="601" y="335" fill="#6b7280">U</text>
  <text x="611" y="335" fill="#6b7280">P</text>
  <text x="621" y="335" fill="#6b7280">/</text>
  <text x="631" y="335" fill="#6b7280">D</text>
  <text x="641" y="335" fill="#6b7280">O</text>
  <text x="651" y="335" fill="#6b7280">W</text>
  <text x="661" y="335" fill="#6b7280">N</text>
  <text x="681" y="335" fill="#6b7280">a</text>
  <text x="691" y="335" fill="#6b7280">r</text>
  <text x="701" y="335" fill="#6b7280">r</text>
  <text x="711" y="335" fill="#6b7280">o</text>
  <text x="721" y="335" fill="#6b7280">w</text>
  <text x="731" y="335" fill="#6b7280">s</text>
  <text x="751" y="335" fill="#6b7280">t</text>
  <text x="761" y="335" fill="#6b7280">o</text>
  <text x="781" y="335" fill="#6b7280">s</text>
  <text x="791" y="335" fill="#6b7280">e</text>
  <text x="801" y="335" fill="#6b7280">l</text>
  <text x="811" y="335" fill="#6b7280">e</text>
  <text x="821" y="335" fill="#6b7280">c</text>
  <text x="831" y="335" fill="#6b7280">t</text>
  <text x="841" y="335" fill="#6b7280">.</text>
  <text x="1041" y="335" fill="#38bdf8">│</text>
  <text x="351" y="355" fill="#38bdf8">│</text>
  <text x="591" y="355" fill="#6b7280">P</text>
  <text x="601" y="355" fill="#6b7280">r</text>
  <text x="611" y="355" fill="#6b7280">e</text>
  <text x="621" y="355" fill="#6b7280">s</text>
  <text x="631" y="355" fill="#6b7280">s</text>
  <text x="651" y="355" fill="#6b7280">E</text>
  <text x="661" y="355" fill="#6b7280">N</text>
  <text x="671" y="355" fill="#6b7280">T</text>
  <text x="681" y="355" fill="#6b7280">E</text>
  <text x="691" y="355" fill="#6b7280">R</text>
  <text x="711" y="355" fill="#6b7280">t</text>
  <text x="721" y="355" fill="#6b7280">o</text>
  <text x="741" y="355" fill="#6b7280">t</text>
  <text x="751" y="355" fill="#6b7280">o</text>
  <text x="761" y="355" fill="#6b7280">g</text>
  <text x="771" y="355" fill="#6b7280">g</text>
  <text x="781" y="355" fill="#6b7280">l</text>
  <text x="791" y="355" fill="#6b7280">e</text>
  <text x="801" y="355" fill="#6b7280">.</text>
  <text x="1041" y="355" fill="#38bdf8">│</text>
  <text x="351" y="375" fill="#38bdf8">│</text>
  <text x="1041" y="375" fill="#38bdf8">│</text>
  <text x="351" y="395" fill="#38bdf8">│</text>
  <text x="361" y="395" fill="#6b7280">W</text>
  <text x="371" y="395" fill="#6b7280">h</text>
  <text x="381" y="395" fill="#6b7280">e</text>
  <text x="391" y="395" fill="#6b7280">n</text>
  <text x="411" y="395" fill="#6b7280">E</text>
  <text x="421" y="395" fill="#6b7280">d</text>
  <text x="431" y="395" fill="#6b7280">i</text>
  <text x="441" y="395" fill="#6b7280">t</text>
  <text x="461" y="395" fill="#6b7280">M</text>
  <text x="471" y="395" fill="#6b7280">o</text>
  <text x="481" y="395" fill="#6b7280">d</text>
  <text x="491" y="395" fill="#6b7280">e</text>
  <text x="511" y="395" fill="#6b7280">i</text>
  <text x="521" y="395" fill="#6b7280">s</text>
  <text x="541" y="395" fill="#6b7280">O</text>
  <text x="551" y="395" fill="#6b7280">N</text>
  <text x="561" y="395" fill="#6b7280">,</text>
  <text x="581" y="395" fill="#6b7280">y</text>
  <text x="591" y="395" fill="#6b7280">o</text>
  <text x="601" y="395" fill="#6b7280">u</text>
  <text x="621" y="395" fill="#6b7280">c</text>
  <text x="631" y="395" fill="#6b7280">a</text>
  <text x="641" y="395" fill="#6b7280">n</text>
  <text x="661" y="395" fill="#6b7280">d</text>
  <text x="671" y="395" fill="#6b7280">r</text>
  <text x="681" y="395" fill="#6b7280">a</text>
  <text x="691" y="395" fill="#6b7280">g</text>
  <text x="711" y="395" fill="#6b7280">t</text>
  <text x="721" y="395" fill="#6b7280">h</text>
  <text x="731" y="395" fill="#6b7280">e</text>
  <text x="751" y="395" fill="#6b7280">o</text>
  <text x="761" y="395" fill="#6b7280">v</text>
  <text x="771" y="395" fill="#6b7280">e</text>
  <text x="781" y="395" fill="#6b7280">r</text>
  <text x="791" y="395" fill="#6b7280">l</text>
  <text x="801" y="395" fill="#6b7280">a</text>
  <text x="811" y="395" fill="#6b7280">y</text>
  <text x="831" y="395" fill="#6b7280">w</text>
  <text x="841" y="395" fill="#6b7280">i</text>
  <text x="851" y="395" fill="#6b7280">t</text>
  <text x="861" y="395" fill="#6b7280">h</text>
  <text x="881" y="395" fill="#6b7280">y</text>
  <text x="891" y="395" fill="#6b7280">o</text>
  <text x="901" y="395" fill="#6b7280">u</text>
  <text x="911" y="395" fill="#6b7280">r</text>
  <text x="931" y="395" fill="#6b7280">m</text>
  <text x="941" y="395" fill="#6b7280">o</text>
  <text x="951" y="395" fill="#6b7280">u</text>
  <text x="961" y="395" fill="#6b7280">s</text>
  <text x="971" y="395" fill="#6b7280">e</text>
  <text x="991" y="395" fill="#6b7280">a</text>
  <text x="1001" y="395" fill="#6b7280">n</text>
  <text x="1011" y="395" fill="#6b7280">d</text>
  <text x="1031" y="395" fill="#6b7280">c</text>
  <text x="1041" y="395" fill="#38bdf8">│</text>
  <text x="351" y="415" fill="#38bdf8">│</text>
  <text x="1041" y="415" fill="#38bdf8">│</text>
  <text x="351" y="435" fill="#38bdf8">│</text>
  <text x="1041" y="435" fill="#38bdf8">│</text>
  <text x="351" y="455" fill="#38bdf8">│</text>
  <text x="1041" y="455" fill="#38bdf8">│</text>
  <text x="351" y="475" fill="#38bdf8">│</text>
  <text x="1041" y="475" fill="#38bdf8">│</text>
  <text x="351" y="495" fill="#38bdf8">│</text>
  <text x="1041" y="495" fill="#38bdf8">│</text>
  <text x="351" y="515" fill="#38bdf8">└</text>
  <text x="361" y="515" fill="#38bdf8">─</text>
  <text x="371" y="515" fill="#38bdf8">─</text>
  <text x="381" y="515" fill="#38bdf8">─</text>
  <text x="391" y="515" fill="#38bdf8">─</text>
  <text x="401" y="515" fill="#38bdf8">─</text>
  <text x="411" y="515" fill="#38bdf8">─</text>
  <text x="421" y="515" fill="#38bdf8">─</text>
  <text x="431" y="515" fill="#38bdf8">─</text>
  <text x="441" y="515" fill="#38bdf8">─</text>
  <text x="451" y="515" fill="#38bdf8">─</text>
  <text x="461" y="515" fill="#38bdf8">─</text>
  <text x="471" y="515" fill="#38bdf8">─</text>
  <text x="481" y="515" fill="#38bdf8">─</text>
  <text x="491" y="515" fill="#38bdf8">─</text>
  <text x="501" y="515" fill="#38bdf8">─</text>
  <text x="511" y="515" fill="#38bdf8">─</text>
  <text x="521" y="515" fill="#38bdf8">─</text>
  <text x="531" y="515" fill="#38bdf8">─</text>
  <text x="541" y="515" fill="#38bdf8">─</text>
  <text x="551" y="515" fill="#38bdf8">─</text>
  <text x="561" y="515" fill="#38bdf8">─</text>
  <text x="571" y="515" fill="#38bdf8">─</text>
  <text x="581" y="515" fill="#38bdf8">─</text>
  <text x="591" y="515" fill="#38bdf8">─</text>
  <text x="601" y="515" fill="#38bdf8">─</text>
  <text x="611" y="515" fill="#38bdf8">─</text>
  <text x="621" y="515" fill="#38bdf8">─</text>
  <text x="631" y="515" fill="#38bdf8">─</text>
  <text x="641" y="515" fill="#38bdf8">─</text>
  <text x="651" y="515" fill="#38bdf8">─</text>
  <text x="661" y="515" fill="#38bdf8">─</text>
  <text x="671" y="515" fill="#38bdf8">─</text>
  <text x="681" y="515" fill="#38bdf8">─</text>
  <text x="691" y="515" fill="#38bdf8">─</text>
  <text x="701" y="515" fill="#38bdf8">─</text>
  <text x="711" y="515" fill="#38bdf8">─</text>
  <text x="721" y="515" fill="#38bdf8">─</text>
  <text x="731" y="515" fill="#38bdf8">─</text>
  <text x="741" y="515" fill="#38bdf8">─</text>
  <text x="751" y="515" fill="#38bdf8">─</text>
  <text x="761" y="515" fill="#38bdf8">─</text>
  <text x="771" y="515" fill="#38bdf8">─</text>
  <text x="781" y="515" fill="#38bdf8">─</text>
  <text x="791" y="515" fill="#38bdf8">─</text>
  <text x="801" y="515" fill="#38bdf8">─</text>
  <text x="811" y="515" fill="#38bdf8">─</text>
  <text x="821" y="515" fill="#38bdf8">─</text>
  <text x="831" y="515" fill="#38bdf8">─</text>
  <text x="841" y="515" fill="#38bdf8">─</text>
  <text x="851" y="515" fill="#38bdf8">─</text>
  <text x="861" y="515" fill="#38bdf8">─</text>
  <text x="871" y="515" fill="#38bdf8">─</text>
  <text x="881" y="515" fill="#38bdf8">─</text>
  <text x="891" y="515" fill="#38bdf8">─</text>
  <text x="901" y="515" fill="#38bdf8">─</text>
  <text x="911" y="515" fill="#38bdf8">─</text>
  <text x="921" y="515" fill="#38bdf8">─</text>
  <text x="931" y="515" fill="#38bdf8">─</text>
  <text x="941" y="515" fill="#38bdf8">─</text>
  <text x="951" y="515" fill="#38bdf8">─</text>
  <text x="961" y="515" fill="#38bdf8">─</text>
  <text x="971" y="515" fill="#38bdf8">─</text>
  <text x="981" y="515" fill="#38bdf8">─</text>
  <text x="991" y="515" fill="#38bdf8">─</text>
  <text x="1001" y="515" fill="#38bdf8">─</text>
  <text x="1011" y="515" fill="#38bdf8">─</text>
  <text x="1021" y="515" fill="#38bdf8">─</text>
  <text x="1031" y="515" fill="#38bdf8">─</text>
  <text x="1041" y="515" fill="#38bdf8">┘</text>
</svg>
