<svg xmlns="http://www.w3.org/2000/svg" viewBox="0 0 1416 848" width="1416" height="848" style="background-color: #0b0f19; font-family: 'Fira Code', 'JetBrains Mono', 'Cascadia Code', 'Consolas', monospace; font-size: 14px;">
  <rect x="4" y="4" width="1408" height="840" rx="10" fill="#0d1117" stroke="#30363d" stroke-width="1.5"/>
  <circle cx="20" cy="20" r="5.5" fill="#ff5f56"/>
  <circle cx="36" cy="20" r="5.5" fill="#ffbd2e"/>
  <circle cx="52" cy="20" r="5.5" fill="#27c93f"/>
  <text x="708" y="24" fill="#8b949e" font-size="12px" font-weight="bold" text-anchor="middle">AC Pro Engineer v0.2.3 — High-Performance Sim Telemetry Suite</text>
  <line x1="4" y1="32" x2="1412" y2="32" stroke="#21262d" stroke-width="1"/>
  <rect x="8" y="72" width="10" height="20" fill="#238636"/>
  <rect x="18" y="72" width="10" height="20" fill="#238636"/>
  <rect x="28" y="72" width="10" height="20" fill="#238636"/>
  <rect x="38" y="72" width="10" height="20" fill="#238636"/>
  <rect x="48" y="72" width="10" height="20" fill="#238636"/>
  <rect x="58" y="72" width="10" height="20" fill="#238636"/>
  <rect x="68" y="72" width="10" height="20" fill="#238636"/>
  <rect x="78" y="72" width="10" height="20" fill="#238636"/>
  <rect x="88" y="72" width="10" height="20" fill="#238636"/>
  <rect x="98" y="72" width="10" height="20" fill="#238636"/>
  <rect x="108" y="72" width="10" height="20" fill="#238636"/>
  <rect x="118" y="72" width="10" height="20" fill="#238636"/>
  <rect x="128" y="72" width="10" height="20" fill="#238636"/>
  <rect x="138" y="72" width="10" height="20" fill="#238636"/>
  <rect x="148" y="72" width="10" height="20" fill="#238636"/>
  <rect x="158" y="72" width="10" height="20" fill="#238636"/>
  <rect x="168" y="72" width="10" height="20" fill="#238636"/>
  <rect x="178" y="72" width="10" height="20" fill="#238636"/>
  <rect x="188" y="72" width="10" height="20" fill="#238636"/>
  <rect x="198" y="72" width="10" height="20" fill="#238636"/>
  <rect x="208" y="72" width="10" height="20" fill="#238636"/>
  <rect x="218" y="72" width="10" height="20" fill="#238636"/>
  <rect x="228" y="72" width="10" height="20" fill="#238636"/>
  <rect x="238" y="72" width="10" height="20" fill="#238636"/>
  <rect x="248" y="72" width="10" height="20" fill="#238636"/>
  <rect x="258" y="72" width="10" height="20" fill="#238636"/>
  <rect x="268" y="72" width="10" height="20" fill="#238636"/>
  <rect x="278" y="72" width="10" height="20" fill="#238636"/>
  <rect x="288" y="72" width="10" height="20" fill="#238636"/>
  <rect x="298" y="72" width="10" height="20" fill="#238636"/>
  <rect x="308" y="72" width="10" height="20" fill="#238636"/>
  <rect x="318" y="72" width="10" height="20" fill="#238636"/>
  <rect x="328" y="72" width="10" height="20" fill="#238636"/>
  <rect x="338" y="72" width="10" height="20" fill="#238636"/>
  <rect x="348" y="72" width="10" height="20" fill="#238636"/>
  <rect x="358" y="72" width="10" height="20" fill="#238636"/>
  <rect x="368" y="72" width="10" height="20" fill="#238636"/>
  <rect x="378" y="72" width="10" height="20" fill="#238636"/>
  <rect x="388" y="72" width="10" height="20" fill="#238636"/>
  <rect x="398" y="72" width="10" height="20" fill="#238636"/>
  <rect x="408" y="72" width="10" height="20" fill="#238636"/>
  <rect x="418" y="72" width="10" height="20" fill="#238636"/>
  <rect x="428" y="72" width="10" height="20" fill="#238636"/>
  <rect x="438" y="72" width="10" height="20" fill="#238636"/>
  <rect x="448" y="72" width="10" height="20" fill="#238636"/>
  <rect x="458" y="72" width="10" height="20" fill="#238636"/>
  <rect x="468" y="72" width="10" height="20" fill="#238636"/>
  <rect x="478" y="72" width="10" height="20" fill="#238636"/>
  <rect x="488" y="72" width="10" height="20" fill="#238636"/>
  <rect x="498" y="72" width="10" height="20" fill="#238636"/>
  <rect x="8" y="812" width="10" height="20" fill="#238636"/>
  <rect x="18" y="812" width="10" height="20" fill="#238636"/>
  <rect x="28" y="812" width="10" height="20" fill="#238636"/>
  <rect x="38" y="812" width="10" height="20" fill="#238636"/>
  <rect x="48" y="812" width="10" height="20" fill="#238636"/>
  <rect x="58" y="812" width="10" height="20" fill="#238636"/>
  <rect x="68" y="812" width="10" height="20" fill="#238636"/>
  <rect x="78" y="812" width="10" height="20" fill="#238636"/>
  <rect x="98" y="812" width="10" height="20" fill="#1f6feb"/>
  <rect x="108" y="812" width="10" height="20" fill="#1f6feb"/>
  <rect x="128" y="812" width="10" height="20" fill="#1f6feb"/>
  <rect x="138" y="812" width="10" height="20" fill="#1f6feb"/>
  <rect x="148" y="812" width="10" height="20" fill="#1f6feb"/>
  <rect x="158" y="812" width="10" height="20" fill="#1f6feb"/>
  <rect x="168" y="812" width="10" height="20" fill="#1f6feb"/>
  <rect x="178" y="812" width="10" height="20" fill="#1f6feb"/>
  <rect x="188" y="812" width="10" height="20" fill="#1f6feb"/>
  <rect x="198" y="812" width="10" height="20" fill="#1f6feb"/>
  <rect x="208" y="812" width="10" height="20" fill="#1f6feb"/>
  <rect x="218" y="812" width="10" height="20" fill="#1f6feb"/>
  <rect x="228" y="812" width="10" height="20" fill="#1f6feb"/>
  <rect x="238" y="812" width="10" height="20" fill="#1f6feb"/>
  <rect x="248" y="812" width="10" height="20" fill="#1f6feb"/>
  <rect x="258" y="812" width="10" height="20" fill="#1f6feb"/>
  <rect x="268" y="812" width="10" height="20" fill="#1f6feb"/>
  <rect x="288" y="812" width="10" height="20" fill="#1b7c83"/>
  <rect x="298" y="812" width="10" height="20" fill="#1b7c83"/>
  <rect x="318" y="812" width="10" height="20" fill="#1b7c83"/>
  <rect x="328" y="812" width="10" height="20" fill="#1b7c83"/>
  <rect x="338" y="812" width="10" height="20" fill="#1b7c83"/>
  <rect x="348" y="812" width="10" height="20" fill="#1b7c83"/>
  <rect x="358" y="812" width="10" height="20" fill="#1b7c83"/>
  <rect x="368" y="812" width="10" height="20" fill="#1b7c83"/>
  <rect x="378" y="812" width="10" height="20" fill="#1b7c83"/>
  <rect x="388" y="812" width="10" height="20" fill="#1b7c83"/>
  <rect x="398" y="812" width="10" height="20" fill="#1b7c83"/>
  <rect x="408" y="812" width="10" height="20" fill="#1b7c83"/>
  <rect x="418" y="812" width="10" height="20" fill="#1b7c83"/>
  <rect x="428" y="812" width="10" height="20" fill="#1b7c83"/>
  <rect x="438" y="812" width="10" height="20" fill="#1b7c83"/>
  <rect x="448" y="812" width="10" height="20" fill="#1b7c83"/>
  <rect x="458" y="812" width="10" height="20" fill="#1b7c83"/>
  <rect x="468" y="812" width="10" height="20" fill="#1b7c83"/>
  <rect x="478" y="812" width="10" height="20" fill="#1b7c83"/>
  <rect x="488" y="812" width="10" height="20" fill="#1b7c83"/>
  <rect x="498" y="812" width="10" height="20" fill="#1b7c83"/>
  <rect x="508" y="812" width="10" height="20" fill="#1b7c83"/>
  <rect x="518" y="812" width="10" height="20" fill="#1b7c83"/>
  <rect x="528" y="812" width="10" height="20" fill="#1b7c83"/>
  <rect x="538" y="812" width="10" height="20" fill="#1b7c83"/>
  <rect x="548" y="812" width="10" height="20" fill="#1b7c83"/>
  <rect x="558" y="812" width="10" height="20" fill="#1b7c83"/>
  <rect x="568" y="812" width="10" height="20" fill="#1b7c83"/>
  <rect x="578" y="812" width="10" height="20" fill="#1b7c83"/>
  <rect x="598" y="812" width="10" height="20" fill="#da3633"/>
  <rect x="608" y="812" width="10" height="20" fill="#da3633"/>
  <rect x="628" y="812" width="10" height="20" fill="#da3633"/>
  <rect x="638" y="812" width="10" height="20" fill="#da3633"/>
  <rect x="648" y="812" width="10" height="20" fill="#da3633"/>
  <rect x="658" y="812" width="10" height="20" fill="#da3633"/>
  <rect x="668" y="812" width="10" height="20" fill="#da3633"/>
  <rect x="678" y="812" width="10" height="20" fill="#da3633"/>
  <rect x="688" y="812" width="10" height="20" fill="#da3633"/>
  <rect x="698" y="812" width="10" height="20" fill="#da3633"/>
  <rect x="718" y="812" width="10" height="20" fill="#21262d"/>
  <rect x="728" y="812" width="10" height="20" fill="#21262d"/>
  <rect x="738" y="812" width="10" height="20" fill="#21262d"/>
  <rect x="748" y="812" width="10" height="20" fill="#21262d"/>
  <rect x="758" y="812" width="10" height="20" fill="#21262d"/>
  <rect x="768" y="812" width="10" height="20" fill="#21262d"/>
  <rect x="778" y="812" width="10" height="20" fill="#21262d"/>
  <rect x="788" y="812" width="10" height="20" fill="#21262d"/>
  <rect x="798" y="812" width="10" height="20" fill="#21262d"/>
  <rect x="808" y="812" width="10" height="20" fill="#21262d"/>
  <rect x="818" y="812" width="10" height="20" fill="#21262d"/>
  <rect x="828" y="812" width="10" height="20" fill="#21262d"/>
  <rect x="838" y="812" width="10" height="20" fill="#21262d"/>
  <rect x="858" y="812" width="10" height="20" fill="#8957e5"/>
  <rect x="868" y="812" width="10" height="20" fill="#8957e5"/>
  <rect x="878" y="812" width="10" height="20" fill="#8957e5"/>
  <rect x="888" y="812" width="10" height="20" fill="#8957e5"/>
  <rect x="898" y="812" width="10" height="20" fill="#8957e5"/>
  <rect x="908" y="812" width="10" height="20" fill="#8957e5"/>
  <rect x="918" y="812" width="10" height="20" fill="#8957e5"/>
  <rect x="928" y="812" width="10" height="20" fill="#8957e5"/>
  <rect x="938" y="812" width="10" height="20" fill="#8957e5"/>
  <rect x="948" y="812" width="10" height="20" fill="#8957e5"/>
  <rect x="958" y="812" width="10" height="20" fill="#8957e5"/>
  <rect x="968" y="812" width="10" height="20" fill="#8957e5"/>
  <rect x="978" y="812" width="10" height="20" fill="#8957e5"/>
  <rect x="998" y="812" width="10" height="20" fill="#9e6a03"/>
  <rect x="1008" y="812" width="10" height="20" fill="#9e6a03"/>
  <rect x="1028" y="812" width="10" height="20" fill="#9e6a03"/>
  <rect x="1038" y="812" width="10" height="20" fill="#9e6a03"/>
  <rect x="1048" y="812" width="10" height="20" fill="#9e6a03"/>
  <rect x="1058" y="812" width="10" height="20" fill="#9e6a03"/>
  <rect x="1068" y="812" width="10" height="20" fill="#9e6a03"/>
  <rect x="1078" y="812" width="10" height="20" fill="#9e6a03"/>
  <rect x="1088" y="812" width="10" height="20" fill="#9e6a03"/>
  <rect x="1098" y="812" width="10" height="20" fill="#9e6a03"/>
  <rect x="1108" y="812" width="10" height="20" fill="#9e6a03"/>
  <rect x="1118" y="812" width="10" height="20" fill="#9e6a03"/>
  <rect x="1128" y="812" width="10" height="20" fill="#9e6a03"/>
  <rect x="1138" y="812" width="10" height="20" fill="#9e6a03"/>
  <rect x="1148" y="812" width="10" height="20" fill="#9e6a03"/>
  <text x="19" y="47" fill="#c9d1d9">🏁</text>
  <text x="49" y="47" fill="#c9d1d9">D</text>
  <text x="59" y="47" fill="#c9d1d9">A</text>
  <text x="69" y="47" fill="#c9d1d9">S</text>
  <text x="79" y="47" fill="#c9d1d9">H</text>
  <text x="89" y="47" fill="#c9d1d9">B</text>
  <text x="99" y="47" fill="#c9d1d9">O</text>
  <text x="109" y="47" fill="#c9d1d9">A</text>
  <text x="119" y="47" fill="#c9d1d9">R</text>
  <text x="129" y="47" fill="#c9d1d9">D</text>
  <text x="149" y="47" fill="#c9d1d9">│</text>
  <text x="169" y="47" fill="#c9d1d9">📊</text>
  <text x="199" y="47" fill="#c9d1d9">T</text>
  <text x="209" y="47" fill="#c9d1d9">E</text>
  <text x="219" y="47" fill="#c9d1d9">L</text>
  <text x="229" y="47" fill="#c9d1d9">E</text>
  <text x="239" y="47" fill="#c9d1d9">M</text>
  <text x="249" y="47" fill="#c9d1d9">E</text>
  <text x="259" y="47" fill="#c9d1d9">T</text>
  <text x="269" y="47" fill="#c9d1d9">R</text>
  <text x="279" y="47" fill="#c9d1d9">Y</text>
  <text x="299" y="47" fill="#c9d1d9">│</text>
  <text x="319" y="47" fill="#c9d1d9">👨‍🔧</text>
  <text x="349" y="47" fill="#c9d1d9">E</text>
  <text x="359" y="47" fill="#c9d1d9">N</text>
  <text x="369" y="47" fill="#c9d1d9">G</text>
  <text x="379" y="47" fill="#c9d1d9">I</text>
  <text x="389" y="47" fill="#c9d1d9">N</text>
  <text x="399" y="47" fill="#c9d1d9">E</text>
  <text x="409" y="47" fill="#c9d1d9">E</text>
  <text x="419" y="47" fill="#c9d1d9">R</text>
  <text x="439" y="47" fill="#c9d1d9">│</text>
  <text x="459" y="47" fill="#c9d1d9">🔧</text>
  <text x="489" y="47" fill="#c9d1d9">S</text>
  <text x="499" y="47" fill="#c9d1d9">E</text>
  <text x="509" y="47" fill="#c9d1d9">T</text>
  <text x="519" y="47" fill="#c9d1d9">U</text>
  <text x="529" y="47" fill="#c9d1d9">P</text>
  <text x="549" y="47" fill="#c9d1d9">│</text>
  <text x="569" y="47" fill="#c9d1d9">📈</text>
  <text x="599" y="47" fill="#c9d1d9">A</text>
  <text x="609" y="47" fill="#c9d1d9">N</text>
  <text x="619" y="47" fill="#c9d1d9">A</text>
  <text x="629" y="47" fill="#c9d1d9">L</text>
  <text x="639" y="47" fill="#c9d1d9">Y</text>
  <text x="649" y="47" fill="#c9d1d9">S</text>
  <text x="659" y="47" fill="#c9d1d9">I</text>
  <text x="669" y="47" fill="#c9d1d9">S</text>
  <text x="689" y="47" fill="#c9d1d9">│</text>
  <text x="709" y="47" fill="#c9d1d9">🎯</text>
  <text x="739" y="47" fill="#c9d1d9">S</text>
  <text x="749" y="47" fill="#c9d1d9">T</text>
  <text x="759" y="47" fill="#c9d1d9">R</text>
  <text x="769" y="47" fill="#c9d1d9">A</text>
  <text x="779" y="47" fill="#c9d1d9">T</text>
  <text x="789" y="47" fill="#c9d1d9">E</text>
  <text x="799" y="47" fill="#c9d1d9">G</text>
  <text x="809" y="47" fill="#c9d1d9">Y</text>
  <text x="829" y="47" fill="#c9d1d9">│</text>
  <text x="849" y="47" fill="#c9d1d9">🎮</text>
  <text x="879" y="47" fill="#c9d1d9">F</text>
  <text x="889" y="47" fill="#c9d1d9">F</text>
  <text x="899" y="47" fill="#c9d1d9">B</text>
  <text x="919" y="47" fill="#c9d1d9">│</text>
  <text x="939" y="47" fill="#c9d1d9">⚙️</text>
  <text x="969" y="47" fill="#c9d1d9">S</text>
  <text x="979" y="47" fill="#c9d1d9">E</text>
  <text x="989" y="47" fill="#c9d1d9">T</text>
  <text x="999" y="47" fill="#c9d1d9">T</text>
  <text x="1009" y="47" fill="#c9d1d9">I</text>
  <text x="1019" y="47" fill="#c9d1d9">N</text>
  <text x="1029" y="47" fill="#c9d1d9">G</text>
  <text x="1039" y="47" fill="#c9d1d9">S</text>
  <text x="1059" y="47" fill="#c9d1d9">│</text>
  <text x="1079" y="47" fill="#c9d1d9">📖</text>
  <text x="1109" y="47" fill="#c9d1d9">G</text>
  <text x="1119" y="47" fill="#c9d1d9">u</text>
  <text x="1129" y="47" fill="#c9d1d9">i</text>
  <text x="1139" y="47" fill="#c9d1d9">d</text>
  <text x="1149" y="47" fill="#c9d1d9">e</text>
  <text x="9" y="87" fill="#f0f6fc">─</text>
  <text x="19" y="87" fill="#f0f6fc">─</text>
  <text x="29" y="87" fill="#f0f6fc">─</text>
  <text x="39" y="87" fill="#f0f6fc">─</text>
  <text x="49" y="87" fill="#f0f6fc">─</text>
  <text x="59" y="87" fill="#f0f6fc">─</text>
  <text x="69" y="87" fill="#f0f6fc">─</text>
  <text x="79" y="87" fill="#f0f6fc">─</text>
  <text x="89" y="87" fill="#f0f6fc">─</text>
  <text x="99" y="87" fill="#f0f6fc">─</text>
  <text x="109" y="87" fill="#f0f6fc">─</text>
  <text x="119" y="87" fill="#f0f6fc">─</text>
  <text x="129" y="87" fill="#f0f6fc">─</text>
  <text x="139" y="87" fill="#f0f6fc">─</text>
  <text x="149" y="87" fill="#f0f6fc">─</text>
  <text x="159" y="87" fill="#f0f6fc">─</text>
  <text x="169" y="87" fill="#f0f6fc">─</text>
  <text x="179" y="87" fill="#f0f6fc">─</text>
  <text x="189" y="87" fill="#f0f6fc">─</text>
  <text x="199" y="87" fill="#f0f6fc">─</text>
  <text x="209" y="87" fill="#f0f6fc">─</text>
  <text x="219" y="87" fill="#f0f6fc">─</text>
  <text x="229" y="87" fill="#f0f6fc">─</text>
  <text x="239" y="87" fill="#f0f6fc">─</text>
  <text x="249" y="87" fill="#f0f6fc">─</text>
  <text x="259" y="87" fill="#f0f6fc">─</text>
  <text x="269" y="87" fill="#f0f6fc">─</text>
  <text x="279" y="87" fill="#f0f6fc">─</text>
  <text x="289" y="87" fill="#f0f6fc">─</text>
  <text x="299" y="87" fill="#f0f6fc">─</text>
  <text x="309" y="87" fill="#f0f6fc">─</text>
  <text x="319" y="87" fill="#f0f6fc">─</text>
  <text x="329" y="87" fill="#f0f6fc">─</text>
  <text x="339" y="87" fill="#f0f6fc">─</text>
  <text x="349" y="87" fill="#f0f6fc">─</text>
  <text x="359" y="87" fill="#f0f6fc">─</text>
  <text x="369" y="87" fill="#f0f6fc">─</text>
  <text x="379" y="87" fill="#f0f6fc">─</text>
  <text x="389" y="87" fill="#f0f6fc">─</text>
  <text x="399" y="87" fill="#f0f6fc">─</text>
  <text x="409" y="87" fill="#f0f6fc">─</text>
  <text x="419" y="87" fill="#f0f6fc">─</text>
  <text x="429" y="87" fill="#f0f6fc">─</text>
  <text x="439" y="87" fill="#f0f6fc">─</text>
  <text x="449" y="87" fill="#f0f6fc">─</text>
  <text x="459" y="87" fill="#f0f6fc">─</text>
  <text x="469" y="87" fill="#f0f6fc">─</text>
  <text x="479" y="87" fill="#f0f6fc">─</text>
  <text x="489" y="87" fill="#f0f6fc">─</text>
  <text x="499" y="87" fill="#f0f6fc">─</text>
  <text x="509" y="87" fill="#f0f6fc">─</text>
  <text x="519" y="87" fill="#f0f6fc">─</text>
  <text x="529" y="87" fill="#f0f6fc">─</text>
  <text x="539" y="87" fill="#f0f6fc">─</text>
  <text x="549" y="87" fill="#f0f6fc">─</text>
  <text x="559" y="87" fill="#f0f6fc">─</text>
  <text x="569" y="87" fill="#f0f6fc">─</text>
  <text x="579" y="87" fill="#f0f6fc">─</text>
  <text x="589" y="87" fill="#f0f6fc">─</text>
  <text x="599" y="87" fill="#f0f6fc">─</text>
  <text x="609" y="87" fill="#f0f6fc">─</text>
  <text x="619" y="87" fill="#f0f6fc">─</text>
  <text x="629" y="87" fill="#f0f6fc">4</text>
  <text x="639" y="87" fill="#f0f6fc">5</text>
  <text x="649" y="87" fill="#f0f6fc">0</text>
  <text x="659" y="87" fill="#f0f6fc">5</text>
  <text x="679" y="87" fill="#f0f6fc">/</text>
  <text x="699" y="87" fill="#f0f6fc">1</text>
  <text x="709" y="87" fill="#f0f6fc">2</text>
  <text x="719" y="87" fill="#f0f6fc">5</text>
  <text x="729" y="87" fill="#f0f6fc">0</text>
  <text x="739" y="87" fill="#f0f6fc">0</text>
  <text x="759" y="87" fill="#f0f6fc">R</text>
  <text x="769" y="87" fill="#f0f6fc">P</text>
  <text x="779" y="87" fill="#f0f6fc">M</text>
  <text x="789" y="87" fill="#f0f6fc">─</text>
  <text x="799" y="87" fill="#f0f6fc">─</text>
  <text x="809" y="87" fill="#f0f6fc">─</text>
  <text x="819" y="87" fill="#f0f6fc">─</text>
  <text x="829" y="87" fill="#f0f6fc">─</text>
  <text x="839" y="87" fill="#f0f6fc">─</text>
  <text x="849" y="87" fill="#f0f6fc">─</text>
  <text x="859" y="87" fill="#f0f6fc">─</text>
  <text x="869" y="87" fill="#f0f6fc">─</text>
  <text x="879" y="87" fill="#f0f6fc">─</text>
  <text x="889" y="87" fill="#f0f6fc">─</text>
  <text x="899" y="87" fill="#f0f6fc">─</text>
  <text x="909" y="87" fill="#f0f6fc">─</text>
  <text x="919" y="87" fill="#f0f6fc">─</text>
  <text x="929" y="87" fill="#f0f6fc">─</text>
  <text x="939" y="87" fill="#f0f6fc">─</text>
  <text x="949" y="87" fill="#f0f6fc">─</text>
  <text x="959" y="87" fill="#f0f6fc">─</text>
  <text x="969" y="87" fill="#f0f6fc">─</text>
  <text x="979" y="87" fill="#f0f6fc">─</text>
  <text x="989" y="87" fill="#f0f6fc">─</text>
  <text x="999" y="87" fill="#f0f6fc">─</text>
  <text x="1009" y="87" fill="#f0f6fc">─</text>
  <text x="1019" y="87" fill="#f0f6fc">─</text>
  <text x="1029" y="87" fill="#f0f6fc">─</text>
  <text x="1039" y="87" fill="#f0f6fc">─</text>
  <text x="1049" y="87" fill="#f0f6fc">─</text>
  <text x="1059" y="87" fill="#f0f6fc">─</text>
  <text x="1069" y="87" fill="#f0f6fc">─</text>
  <text x="1079" y="87" fill="#f0f6fc">─</text>
  <text x="1089" y="87" fill="#f0f6fc">─</text>
  <text x="1099" y="87" fill="#f0f6fc">─</text>
  <text x="1109" y="87" fill="#f0f6fc">─</text>
  <text x="1119" y="87" fill="#f0f6fc">─</text>
  <text x="1129" y="87" fill="#f0f6fc">─</text>
  <text x="1139" y="87" fill="#f0f6fc">─</text>
  <text x="1149" y="87" fill="#f0f6fc">─</text>
  <text x="1159" y="87" fill="#f0f6fc">─</text>
  <text x="1169" y="87" fill="#f0f6fc">─</text>
  <text x="1179" y="87" fill="#f0f6fc">─</text>
  <text x="1189" y="87" fill="#f0f6fc">─</text>
  <text x="1199" y="87" fill="#f0f6fc">─</text>
  <text x="1209" y="87" fill="#f0f6fc">─</text>
  <text x="1219" y="87" fill="#f0f6fc">─</text>
  <text x="1229" y="87" fill="#f0f6fc">─</text>
  <text x="1239" y="87" fill="#f0f6fc">─</text>
  <text x="1249" y="87" fill="#f0f6fc">─</text>
  <text x="1259" y="87" fill="#f0f6fc">─</text>
  <text x="1269" y="87" fill="#f0f6fc">─</text>
  <text x="1279" y="87" fill="#f0f6fc">─</text>
  <text x="1289" y="87" fill="#f0f6fc">─</text>
  <text x="1299" y="87" fill="#f0f6fc">─</text>
  <text x="1309" y="87" fill="#f0f6fc">─</text>
  <text x="1319" y="87" fill="#f0f6fc">─</text>
  <text x="1329" y="87" fill="#f0f6fc">─</text>
  <text x="1339" y="87" fill="#f0f6fc">─</text>
  <text x="1349" y="87" fill="#f0f6fc">─</text>
  <text x="1359" y="87" fill="#f0f6fc">─</text>
  <text x="1369" y="87" fill="#f0f6fc">─</text>
  <text x="1379" y="87" fill="#f0f6fc">─</text>
  <text x="1389" y="87" fill="#f0f6fc">─</text>
  <text x="1399" y="87" fill="#f0f6fc">─</text>
  <text x="9" y="107" fill="#c9d1d9">┌</text>
  <text x="19" y="107" fill="#c9d1d9">S</text>
  <text x="29" y="107" fill="#c9d1d9">E</text>
  <text x="39" y="107" fill="#c9d1d9">T</text>
  <text x="49" y="107" fill="#c9d1d9">U</text>
  <text x="59" y="107" fill="#c9d1d9">P</text>
  <text x="69" y="107" fill="#c9d1d9">─</text>
  <text x="79" y="107" fill="#c9d1d9">─</text>
  <text x="89" y="107" fill="#c9d1d9">─</text>
  <text x="99" y="107" fill="#c9d1d9">─</text>
  <text x="109" y="107" fill="#c9d1d9">─</text>
  <text x="119" y="107" fill="#c9d1d9">─</text>
  <text x="129" y="107" fill="#c9d1d9">─</text>
  <text x="139" y="107" fill="#c9d1d9">─</text>
  <text x="149" y="107" fill="#c9d1d9">─</text>
  <text x="159" y="107" fill="#c9d1d9">─</text>
  <text x="169" y="107" fill="#c9d1d9">─</text>
  <text x="179" y="107" fill="#c9d1d9">─</text>
  <text x="189" y="107" fill="#c9d1d9">─</text>
  <text x="199" y="107" fill="#c9d1d9">─</text>
  <text x="209" y="107" fill="#c9d1d9">─</text>
  <text x="219" y="107" fill="#c9d1d9">─</text>
  <text x="229" y="107" fill="#c9d1d9">─</text>
  <text x="239" y="107" fill="#c9d1d9">─</text>
  <text x="249" y="107" fill="#c9d1d9">─</text>
  <text x="259" y="107" fill="#c9d1d9">─</text>
  <text x="269" y="107" fill="#c9d1d9">─</text>
  <text x="279" y="107" fill="#c9d1d9">─</text>
  <text x="289" y="107" fill="#c9d1d9">─</text>
  <text x="299" y="107" fill="#c9d1d9">─</text>
  <text x="309" y="107" fill="#c9d1d9">─</text>
  <text x="319" y="107" fill="#c9d1d9">─</text>
  <text x="329" y="107" fill="#c9d1d9">─</text>
  <text x="339" y="107" fill="#c9d1d9">─</text>
  <text x="349" y="107" fill="#c9d1d9">─</text>
  <text x="359" y="107" fill="#c9d1d9">─</text>
  <text x="369" y="107" fill="#c9d1d9">─</text>
  <text x="379" y="107" fill="#c9d1d9">─</text>
  <text x="389" y="107" fill="#c9d1d9">─</text>
  <text x="399" y="107" fill="#c9d1d9">─</text>
  <text x="409" y="107" fill="#c9d1d9">─</text>
  <text x="419" y="107" fill="#c9d1d9">─</text>
  <text x="429" y="107" fill="#c9d1d9">─</text>
  <text x="439" y="107" fill="#c9d1d9">─</text>
  <text x="449" y="107" fill="#c9d1d9">─</text>
  <text x="459" y="107" fill="#c9d1d9">─</text>
  <text x="469" y="107" fill="#c9d1d9">─</text>
  <text x="479" y="107" fill="#c9d1d9">─</text>
  <text x="489" y="107" fill="#c9d1d9">─</text>
  <text x="499" y="107" fill="#c9d1d9">─</text>
  <text x="509" y="107" fill="#c9d1d9">─</text>
  <text x="519" y="107" fill="#c9d1d9">─</text>
  <text x="529" y="107" fill="#c9d1d9">─</text>
  <text x="539" y="107" fill="#c9d1d9">─</text>
  <text x="549" y="107" fill="#c9d1d9">─</text>
  <text x="559" y="107" fill="#c9d1d9">─</text>
  <text x="569" y="107" fill="#c9d1d9">─</text>
  <text x="579" y="107" fill="#c9d1d9">─</text>
  <text x="589" y="107" fill="#c9d1d9">─</text>
  <text x="599" y="107" fill="#c9d1d9">─</text>
  <text x="609" y="107" fill="#c9d1d9">─</text>
  <text x="619" y="107" fill="#c9d1d9">─</text>
  <text x="629" y="107" fill="#c9d1d9">─</text>
  <text x="639" y="107" fill="#c9d1d9">─</text>
  <text x="649" y="107" fill="#c9d1d9">─</text>
  <text x="659" y="107" fill="#c9d1d9">─</text>
  <text x="669" y="107" fill="#c9d1d9">─</text>
  <text x="679" y="107" fill="#c9d1d9">─</text>
  <text x="689" y="107" fill="#c9d1d9">─</text>
  <text x="699" y="107" fill="#c9d1d9">─</text>
  <text x="709" y="107" fill="#c9d1d9">─</text>
  <text x="719" y="107" fill="#c9d1d9">─</text>
  <text x="729" y="107" fill="#c9d1d9">─</text>
  <text x="739" y="107" fill="#c9d1d9">─</text>
  <text x="749" y="107" fill="#c9d1d9">─</text>
  <text x="759" y="107" fill="#c9d1d9">─</text>
  <text x="769" y="107" fill="#c9d1d9">─</text>
  <text x="779" y="107" fill="#c9d1d9">─</text>
  <text x="789" y="107" fill="#c9d1d9">─</text>
  <text x="799" y="107" fill="#c9d1d9">─</text>
  <text x="809" y="107" fill="#c9d1d9">─</text>
  <text x="819" y="107" fill="#c9d1d9">─</text>
  <text x="829" y="107" fill="#c9d1d9">─</text>
  <text x="839" y="107" fill="#c9d1d9">─</text>
  <text x="849" y="107" fill="#c9d1d9">─</text>
  <text x="859" y="107" fill="#c9d1d9">─</text>
  <text x="869" y="107" fill="#c9d1d9">─</text>
  <text x="879" y="107" fill="#c9d1d9">─</text>
  <text x="889" y="107" fill="#c9d1d9">─</text>
  <text x="899" y="107" fill="#c9d1d9">─</text>
  <text x="909" y="107" fill="#c9d1d9">─</text>
  <text x="919" y="107" fill="#c9d1d9">─</text>
  <text x="929" y="107" fill="#c9d1d9">─</text>
  <text x="939" y="107" fill="#c9d1d9">─</text>
  <text x="949" y="107" fill="#c9d1d9">─</text>
  <text x="959" y="107" fill="#c9d1d9">─</text>
  <text x="969" y="107" fill="#c9d1d9">─</text>
  <text x="979" y="107" fill="#c9d1d9">─</text>
  <text x="989" y="107" fill="#c9d1d9">─</text>
  <text x="999" y="107" fill="#c9d1d9">─</text>
  <text x="1009" y="107" fill="#c9d1d9">─</text>
  <text x="1019" y="107" fill="#c9d1d9">─</text>
  <text x="1029" y="107" fill="#c9d1d9">─</text>
  <text x="1039" y="107" fill="#c9d1d9">─</text>
  <text x="1049" y="107" fill="#c9d1d9">─</text>
  <text x="1059" y="107" fill="#c9d1d9">─</text>
  <text x="1069" y="107" fill="#c9d1d9">─</text>
  <text x="1079" y="107" fill="#c9d1d9">─</text>
  <text x="1089" y="107" fill="#c9d1d9">─</text>
  <text x="1099" y="107" fill="#c9d1d9">─</text>
  <text x="1109" y="107" fill="#c9d1d9">─</text>
  <text x="1119" y="107" fill="#c9d1d9">─</text>
  <text x="1129" y="107" fill="#c9d1d9">─</text>
  <text x="1139" y="107" fill="#c9d1d9">─</text>
  <text x="1149" y="107" fill="#c9d1d9">─</text>
  <text x="1159" y="107" fill="#c9d1d9">─</text>
  <text x="1169" y="107" fill="#c9d1d9">─</text>
  <text x="1179" y="107" fill="#c9d1d9">─</text>
  <text x="1189" y="107" fill="#c9d1d9">─</text>
  <text x="1199" y="107" fill="#c9d1d9">─</text>
  <text x="1209" y="107" fill="#c9d1d9">─</text>
  <text x="1219" y="107" fill="#c9d1d9">─</text>
  <text x="1229" y="107" fill="#c9d1d9">─</text>
  <text x="1239" y="107" fill="#c9d1d9">─</text>
  <text x="1249" y="107" fill="#c9d1d9">─</text>
  <text x="1269" y="107" fill="#f2cc60">⠋</text>
  <text x="1289" y="107" fill="#f2cc60">L</text>
  <text x="1299" y="107" fill="#f2cc60">o</text>
  <text x="1309" y="107" fill="#f2cc60">a</text>
  <text x="1319" y="107" fill="#f2cc60">d</text>
  <text x="1329" y="107" fill="#f2cc60">i</text>
  <text x="1339" y="107" fill="#f2cc60">n</text>
  <text x="1349" y="107" fill="#f2cc60">g</text>
  <text x="1359" y="107" fill="#f2cc60">.</text>
  <text x="1369" y="107" fill="#f2cc60">.</text>
  <text x="1379" y="107" fill="#f2cc60">.</text>
  <text x="1399" y="107" fill="#c9d1d9">┐</text>
  <text x="9" y="127" fill="#c9d1d9">│</text>
  <text x="19" y="127" fill="#c9d1d9">A</text>
  <text x="29" y="127" fill="#c9d1d9">V</text>
  <text x="39" y="127" fill="#c9d1d9">A</text>
  <text x="49" y="127" fill="#c9d1d9">I</text>
  <text x="59" y="127" fill="#c9d1d9">L</text>
  <text x="69" y="127" fill="#c9d1d9">A</text>
  <text x="79" y="127" fill="#c9d1d9">B</text>
  <text x="89" y="127" fill="#c9d1d9">L</text>
  <text x="99" y="127" fill="#c9d1d9">E</text>
  <text x="119" y="127" fill="#c9d1d9">S</text>
  <text x="129" y="127" fill="#c9d1d9">E</text>
  <text x="139" y="127" fill="#c9d1d9">T</text>
  <text x="149" y="127" fill="#c9d1d9">U</text>
  <text x="159" y="127" fill="#c9d1d9">P</text>
  <text x="169" y="127" fill="#c9d1d9">S</text>
  <text x="189" y="127" fill="#c9d1d9">(</text>
  <text x="199" y="127" fill="#c9d1d9">)</text>
  <text x="419" y="127" fill="#c9d1d9">│</text>
  <text x="1399" y="127" fill="#c9d1d9">│</text>
  <text x="9" y="147" fill="#c9d1d9">│</text>
  <text x="419" y="147" fill="#c9d1d9">│</text>
  <text x="1399" y="147" fill="#c9d1d9">│</text>
  <text x="9" y="167" fill="#c9d1d9">│</text>
  <text x="419" y="167" fill="#c9d1d9">│</text>
  <text x="1399" y="167" fill="#c9d1d9">│</text>
  <text x="9" y="187" fill="#c9d1d9">│</text>
  <text x="419" y="187" fill="#c9d1d9">│</text>
  <text x="1399" y="187" fill="#c9d1d9">│</text>
  <text x="9" y="207" fill="#c9d1d9">│</text>
  <text x="419" y="207" fill="#c9d1d9">│</text>
  <text x="1399" y="207" fill="#c9d1d9">│</text>
  <text x="9" y="227" fill="#c9d1d9">│</text>
  <text x="419" y="227" fill="#c9d1d9">│</text>
  <text x="1399" y="227" fill="#c9d1d9">│</text>
  <text x="9" y="247" fill="#c9d1d9">│</text>
  <text x="419" y="247" fill="#c9d1d9">│</text>
  <text x="1399" y="247" fill="#c9d1d9">│</text>
  <text x="9" y="267" fill="#c9d1d9">│</text>
  <text x="419" y="267" fill="#c9d1d9">│</text>
  <text x="1399" y="267" fill="#c9d1d9">│</text>
  <text x="9" y="287" fill="#c9d1d9">│</text>
  <text x="419" y="287" fill="#c9d1d9">│</text>
  <text x="1399" y="287" fill="#c9d1d9">│</text>
  <text x="9" y="307" fill="#c9d1d9">│</text>
  <text x="419" y="307" fill="#c9d1d9">│</text>
  <text x="1399" y="307" fill="#c9d1d9">│</text>
  <text x="9" y="327" fill="#c9d1d9">│</text>
  <text x="419" y="327" fill="#c9d1d9">│</text>
  <text x="1399" y="327" fill="#c9d1d9">│</text>
  <text x="9" y="347" fill="#c9d1d9">│</text>
  <text x="419" y="347" fill="#c9d1d9">│</text>
  <text x="1399" y="347" fill="#c9d1d9">│</text>
  <text x="9" y="367" fill="#c9d1d9">│</text>
  <text x="419" y="367" fill="#c9d1d9">│</text>
  <text x="1399" y="367" fill="#c9d1d9">│</text>
  <text x="9" y="387" fill="#c9d1d9">│</text>
  <text x="419" y="387" fill="#c9d1d9">│</text>
  <text x="1399" y="387" fill="#c9d1d9">│</text>
  <text x="9" y="407" fill="#c9d1d9">│</text>
  <text x="419" y="407" fill="#c9d1d9">│</text>
  <text x="1399" y="407" fill="#c9d1d9">│</text>
  <text x="9" y="427" fill="#c9d1d9">│</text>
  <text x="419" y="427" fill="#c9d1d9">│</text>
  <text x="1399" y="427" fill="#c9d1d9">│</text>
  <text x="9" y="447" fill="#c9d1d9">│</text>
  <text x="419" y="447" fill="#c9d1d9">│</text>
  <text x="1399" y="447" fill="#c9d1d9">│</text>
  <text x="9" y="467" fill="#c9d1d9">│</text>
  <text x="419" y="467" fill="#c9d1d9">│</text>
  <text x="1399" y="467" fill="#c9d1d9">│</text>
  <text x="9" y="487" fill="#c9d1d9">│</text>
  <text x="419" y="487" fill="#c9d1d9">│</text>
  <text x="1399" y="487" fill="#c9d1d9">│</text>
  <text x="9" y="507" fill="#c9d1d9">│</text>
  <text x="419" y="507" fill="#c9d1d9">│</text>
  <text x="1399" y="507" fill="#c9d1d9">│</text>
  <text x="9" y="527" fill="#c9d1d9">│</text>
  <text x="419" y="527" fill="#c9d1d9">│</text>
  <text x="1399" y="527" fill="#c9d1d9">│</text>
  <text x="9" y="547" fill="#c9d1d9">│</text>
  <text x="419" y="547" fill="#c9d1d9">│</text>
  <text x="1399" y="547" fill="#c9d1d9">│</text>
  <text x="9" y="567" fill="#c9d1d9">│</text>
  <text x="419" y="567" fill="#c9d1d9">│</text>
  <text x="1399" y="567" fill="#c9d1d9">│</text>
  <text x="9" y="587" fill="#c9d1d9">│</text>
  <text x="419" y="587" fill="#c9d1d9">│</text>
  <text x="1399" y="587" fill="#c9d1d9">│</text>
  <text x="9" y="607" fill="#c9d1d9">│</text>
  <text x="419" y="607" fill="#c9d1d9">│</text>
  <text x="1399" y="607" fill="#c9d1d9">│</text>
  <text x="9" y="627" fill="#c9d1d9">│</text>
  <text x="419" y="627" fill="#c9d1d9">│</text>
  <text x="1399" y="627" fill="#c9d1d9">│</text>
  <text x="9" y="647" fill="#c9d1d9">│</text>
  <text x="419" y="647" fill="#c9d1d9">│</text>
  <text x="1399" y="647" fill="#c9d1d9">│</text>
  <text x="9" y="667" fill="#c9d1d9">│</text>
  <text x="419" y="667" fill="#c9d1d9">│</text>
  <text x="1399" y="667" fill="#c9d1d9">│</text>
  <text x="9" y="687" fill="#c9d1d9">│</text>
  <text x="419" y="687" fill="#c9d1d9">│</text>
  <text x="1399" y="687" fill="#c9d1d9">│</text>
  <text x="9" y="707" fill="#c9d1d9">│</text>
  <text x="419" y="707" fill="#c9d1d9">│</text>
  <text x="1399" y="707" fill="#c9d1d9">│</text>
  <text x="9" y="727" fill="#c9d1d9">│</text>
  <text x="419" y="727" fill="#c9d1d9">│</text>
  <text x="1399" y="727" fill="#c9d1d9">│</text>
  <text x="9" y="747" fill="#c9d1d9">│</text>
  <text x="419" y="747" fill="#c9d1d9">│</text>
  <text x="1399" y="747" fill="#c9d1d9">│</text>
  <text x="9" y="767" fill="#c9d1d9">│</text>
  <text x="419" y="767" fill="#c9d1d9">│</text>
  <text x="1399" y="767" fill="#c9d1d9">│</text>
  <text x="9" y="787" fill="#c9d1d9">│</text>
  <text x="1399" y="787" fill="#c9d1d9">│</text>
  <text x="9" y="807" fill="#c9d1d9">└</text>
  <text x="19" y="807" fill="#c9d1d9">─</text>
  <text x="29" y="807" fill="#f2cc60">L</text>
  <text x="39" y="807" fill="#f2cc60">I</text>
  <text x="49" y="807" fill="#f2cc60">V</text>
  <text x="59" y="807" fill="#f2cc60">E</text>
  <text x="69" y="807" fill="#f2cc60">:</text>
  <text x="89" y="807" fill="#f2cc60">&apos;</text>
  <text x="99" y="807" fill="#f2cc60">B</text>
  <text x="109" y="807" fill="#f2cc60">&apos;</text>
  <text x="129" y="807" fill="#f2cc60">-</text>
  <text x="149" y="807" fill="#f2cc60">O</text>
  <text x="159" y="807" fill="#f2cc60">n</text>
  <text x="169" y="807" fill="#f2cc60">l</text>
  <text x="179" y="807" fill="#f2cc60">i</text>
  <text x="189" y="807" fill="#f2cc60">n</text>
  <text x="199" y="807" fill="#f2cc60">e</text>
  <text x="219" y="807" fill="#f2cc60">D</text>
  <text x="229" y="807" fill="#f2cc60">a</text>
  <text x="239" y="807" fill="#f2cc60">t</text>
  <text x="249" y="807" fill="#f2cc60">a</text>
  <text x="259" y="807" fill="#f2cc60">b</text>
  <text x="269" y="807" fill="#f2cc60">a</text>
  <text x="279" y="807" fill="#f2cc60">s</text>
  <text x="289" y="807" fill="#f2cc60">e</text>
  <text x="309" y="807" fill="#f2cc60">|</text>
  <text x="329" y="807" fill="#f2cc60">&apos;</text>
  <text x="339" y="807" fill="#f2cc60">D</text>
  <text x="349" y="807" fill="#f2cc60">&apos;</text>
  <text x="369" y="807" fill="#f2cc60">-</text>
  <text x="389" y="807" fill="#f2cc60">D</text>
  <text x="399" y="807" fill="#f2cc60">o</text>
  <text x="409" y="807" fill="#f2cc60">w</text>
  <text x="419" y="807" fill="#f2cc60">n</text>
  <text x="429" y="807" fill="#f2cc60">l</text>
  <text x="439" y="807" fill="#f2cc60">o</text>
  <text x="449" y="807" fill="#f2cc60">a</text>
  <text x="459" y="807" fill="#f2cc60">d</text>
  <text x="479" y="807" fill="#f2cc60">|</text>
  <text x="499" y="807" fill="#f2cc60">P</text>
  <text x="509" y="807" fill="#f2cc60">g</text>
  <text x="519" y="807" fill="#f2cc60">U</text>
  <text x="529" y="807" fill="#f2cc60">p</text>
  <text x="539" y="807" fill="#f2cc60">/</text>
  <text x="549" y="807" fill="#f2cc60">P</text>
  <text x="559" y="807" fill="#f2cc60">g</text>
  <text x="569" y="807" fill="#f2cc60">D</text>
  <text x="579" y="807" fill="#f2cc60">n</text>
  <text x="599" y="807" fill="#f2cc60">-</text>
  <text x="619" y="807" fill="#f2cc60">S</text>
  <text x="629" y="807" fill="#f2cc60">c</text>
  <text x="639" y="807" fill="#f2cc60">r</text>
  <text x="649" y="807" fill="#f2cc60">o</text>
  <text x="659" y="807" fill="#f2cc60">l</text>
  <text x="669" y="807" fill="#f2cc60">l</text>
  <text x="689" y="807" fill="#f2cc60">D</text>
  <text x="699" y="807" fill="#f2cc60">e</text>
  <text x="709" y="807" fill="#f2cc60">t</text>
  <text x="719" y="807" fill="#f2cc60">a</text>
  <text x="729" y="807" fill="#f2cc60">i</text>
  <text x="739" y="807" fill="#f2cc60">l</text>
  <text x="749" y="807" fill="#f2cc60">s</text>
  <text x="759" y="807" fill="#f2cc60">─</text>
  <text x="769" y="807" fill="#f2cc60">─</text>
  <text x="779" y="807" fill="#f2cc60">─</text>
  <text x="789" y="807" fill="#f2cc60">─</text>
  <text x="799" y="807" fill="#f2cc60">─</text>
  <text x="809" y="807" fill="#f2cc60">─</text>
  <text x="819" y="807" fill="#f2cc60">─</text>
  <text x="829" y="807" fill="#f2cc60">─</text>
  <text x="839" y="807" fill="#f2cc60">─</text>
  <text x="849" y="807" fill="#f2cc60">─</text>
  <text x="859" y="807" fill="#f2cc60">─</text>
  <text x="869" y="807" fill="#f2cc60">─</text>
  <text x="879" y="807" fill="#f2cc60">─</text>
  <text x="889" y="807" fill="#f2cc60">─</text>
  <text x="899" y="807" fill="#f2cc60">─</text>
  <text x="909" y="807" fill="#f2cc60">─</text>
  <text x="919" y="807" fill="#f2cc60">─</text>
  <text x="929" y="807" fill="#f2cc60">─</text>
  <text x="939" y="807" fill="#f2cc60">─</text>
  <text x="949" y="807" fill="#f2cc60">─</text>
  <text x="959" y="807" fill="#f2cc60">─</text>
  <text x="969" y="807" fill="#f2cc60">─</text>
  <text x="979" y="807" fill="#f2cc60">─</text>
  <text x="989" y="807" fill="#f2cc60">─</text>
  <text x="999" y="807" fill="#f2cc60">─</text>
  <text x="1009" y="807" fill="#f2cc60">─</text>
  <text x="1019" y="807" fill="#f2cc60">─</text>
  <text x="1029" y="807" fill="#f2cc60">─</text>
  <text x="1039" y="807" fill="#f2cc60">─</text>
  <text x="1049" y="807" fill="#f2cc60">─</text>
  <text x="1059" y="807" fill="#f2cc60">─</text>
  <text x="1069" y="807" fill="#f2cc60">─</text>
  <text x="1079" y="807" fill="#f2cc60">─</text>
  <text x="1089" y="807" fill="#f2cc60">─</text>
  <text x="1099" y="807" fill="#f2cc60">─</text>
  <text x="1109" y="807" fill="#f2cc60">─</text>
  <text x="1119" y="807" fill="#f2cc60">─</text>
  <text x="1129" y="807" fill="#f2cc60">─</text>
  <text x="1139" y="807" fill="#f2cc60">─</text>
  <text x="1149" y="807" fill="#f2cc60">─</text>
  <text x="1159" y="807" fill="#f2cc60">─</text>
  <text x="1169" y="807" fill="#f2cc60">─</text>
  <text x="1179" y="807" fill="#f2cc60">─</text>
  <text x="1189" y="807" fill="#f2cc60">─</text>
  <text x="1199" y="807" fill="#f2cc60">─</text>
  <text x="1209" y="807" fill="#f2cc60">─</text>
  <text x="1219" y="807" fill="#f2cc60">─</text>
  <text x="1229" y="807" fill="#f2cc60">─</text>
  <text x="1239" y="807" fill="#f2cc60">─</text>
  <text x="1249" y="807" fill="#f2cc60">─</text>
  <text x="1259" y="807" fill="#f2cc60">─</text>
  <text x="1269" y="807" fill="#f2cc60">─</text>
  <text x="1279" y="807" fill="#f2cc60">─</text>
  <text x="1289" y="807" fill="#f2cc60">─</text>
  <text x="1299" y="807" fill="#f2cc60">─</text>
  <text x="1309" y="807" fill="#f2cc60">─</text>
  <text x="1319" y="807" fill="#f2cc60">─</text>
  <text x="1329" y="807" fill="#f2cc60">─</text>
  <text x="1339" y="807" fill="#f2cc60">─</text>
  <text x="1349" y="807" fill="#f2cc60">─</text>
  <text x="1359" y="807" fill="#f2cc60">─</text>
  <text x="1369" y="807" fill="#f2cc60">─</text>
  <text x="1379" y="807" fill="#f2cc60">─</text>
  <text x="1389" y="807" fill="#c9d1d9">─</text>
  <text x="1399" y="807" fill="#c9d1d9">┘</text>
  <text x="19" y="827" fill="#c9d1d9">O</text>
  <text x="29" y="827" fill="#c9d1d9">N</text>
  <text x="39" y="827" fill="#c9d1d9">L</text>
  <text x="49" y="827" fill="#c9d1d9">I</text>
  <text x="59" y="827" fill="#c9d1d9">N</text>
  <text x="69" y="827" fill="#c9d1d9">E</text>
  <text x="109" y="827" fill="#c9d1d9">🏎️</text>
  <text x="139" y="827" fill="#c9d1d9">F</text>
  <text x="149" y="827" fill="#c9d1d9">e</text>
  <text x="159" y="827" fill="#c9d1d9">r</text>
  <text x="169" y="827" fill="#c9d1d9">r</text>
  <text x="179" y="827" fill="#c9d1d9">a</text>
  <text x="189" y="827" fill="#c9d1d9">r</text>
  <text x="199" y="827" fill="#c9d1d9">i</text>
  <text x="219" y="827" fill="#c9d1d9">S</text>
  <text x="229" y="827" fill="#c9d1d9">F</text>
  <text x="239" y="827" fill="#c9d1d9">7</text>
  <text x="249" y="827" fill="#c9d1d9">0</text>
  <text x="259" y="827" fill="#c9d1d9">H</text>
  <text x="299" y="827" fill="#c9d1d9">🗺️</text>
  <text x="329" y="827" fill="#c9d1d9">A</text>
  <text x="339" y="827" fill="#c9d1d9">u</text>
  <text x="349" y="827" fill="#c9d1d9">t</text>
  <text x="359" y="827" fill="#c9d1d9">o</text>
  <text x="369" y="827" fill="#c9d1d9">d</text>
  <text x="379" y="827" fill="#c9d1d9">r</text>
  <text x="389" y="827" fill="#c9d1d9">o</text>
  <text x="399" y="827" fill="#c9d1d9">m</text>
  <text x="409" y="827" fill="#c9d1d9">o</text>
  <text x="429" y="827" fill="#c9d1d9">N</text>
  <text x="439" y="827" fill="#c9d1d9">a</text>
  <text x="449" y="827" fill="#c9d1d9">z</text>
  <text x="459" y="827" fill="#c9d1d9">i</text>
  <text x="469" y="827" fill="#c9d1d9">o</text>
  <text x="479" y="827" fill="#c9d1d9">n</text>
  <text x="489" y="827" fill="#c9d1d9">a</text>
  <text x="499" y="827" fill="#c9d1d9">l</text>
  <text x="509" y="827" fill="#c9d1d9">e</text>
  <text x="529" y="827" fill="#c9d1d9">M</text>
  <text x="539" y="827" fill="#c9d1d9">o</text>
  <text x="549" y="827" fill="#c9d1d9">n</text>
  <text x="559" y="827" fill="#c9d1d9">z</text>
  <text x="569" y="827" fill="#c9d1d9">a</text>
  <text x="609" y="827" fill="#f0f6fc">⛽</text>
  <text x="639" y="827" fill="#f0f6fc">3</text>
  <text x="649" y="827" fill="#f0f6fc">6</text>
  <text x="659" y="827" fill="#f0f6fc">.</text>
  <text x="669" y="827" fill="#f0f6fc">8</text>
  <text x="689" y="827" fill="#f0f6fc">L</text>
  <text x="729" y="827" fill="#f0f6fc">L</text>
  <text x="739" y="827" fill="#f0f6fc">:</text>
  <text x="759" y="827" fill="#f0f6fc">-</text>
  <text x="769" y="827" fill="#f0f6fc">:</text>
  <text x="779" y="827" fill="#f0f6fc">-</text>
  <text x="789" y="827" fill="#f0f6fc">-</text>
  <text x="799" y="827" fill="#f0f6fc">.</text>
  <text x="809" y="827" fill="#f0f6fc">-</text>
  <text x="819" y="827" fill="#f0f6fc">-</text>
  <text x="829" y="827" fill="#f0f6fc">-</text>
  <text x="869" y="827" fill="#f0f6fc">B</text>
  <text x="879" y="827" fill="#f0f6fc">:</text>
  <text x="899" y="827" fill="#f0f6fc">-</text>
  <text x="909" y="827" fill="#f0f6fc">:</text>
  <text x="919" y="827" fill="#f0f6fc">-</text>
  <text x="929" y="827" fill="#f0f6fc">-</text>
  <text x="939" y="827" fill="#f0f6fc">.</text>
  <text x="949" y="827" fill="#f0f6fc">-</text>
  <text x="959" y="827" fill="#f0f6fc">-</text>
  <text x="969" y="827" fill="#f0f6fc">-</text>
  <text x="1009" y="827" fill="#c9d1d9">🌡️</text>
  <text x="1039" y="827" fill="#c9d1d9">A</text>
  <text x="1049" y="827" fill="#c9d1d9">:</text>
  <text x="1059" y="827" fill="#c9d1d9">2</text>
  <text x="1069" y="827" fill="#c9d1d9">2</text>
  <text x="1079" y="827" fill="#c9d1d9">°</text>
  <text x="1099" y="827" fill="#c9d1d9">R</text>
  <text x="1109" y="827" fill="#c9d1d9">:</text>
  <text x="1119" y="827" fill="#c9d1d9">3</text>
  <text x="1129" y="827" fill="#c9d1d9">4</text>
  <text x="1139" y="827" fill="#c9d1d9">°</text>
  <text x="1179" y="827" fill="#c9d1d9">[</text>
  <text x="1189" y="827" fill="#c9d1d9">F</text>
  <text x="1199" y="827" fill="#c9d1d9">1</text>
  <text x="1209" y="827" fill="#c9d1d9">0</text>
  <text x="1219" y="827" fill="#c9d1d9">:</text>
  <text x="1239" y="827" fill="#c9d1d9">M</text>
  <text x="1249" y="827" fill="#c9d1d9">i</text>
  <text x="1259" y="827" fill="#c9d1d9">n</text>
  <text x="1269" y="827" fill="#c9d1d9">i</text>
  <text x="1279" y="827" fill="#c9d1d9">]</text>
  <text x="1299" y="827" fill="#c9d1d9">[</text>
  <text x="1309" y="827" fill="#c9d1d9">H</text>
  <text x="1319" y="827" fill="#c9d1d9">:</text>
  <text x="1339" y="827" fill="#c9d1d9">H</text>
  <text x="1349" y="827" fill="#c9d1d9">e</text>
  <text x="1359" y="827" fill="#c9d1d9">l</text>
  <text x="1369" y="827" fill="#c9d1d9">p</text>
  <text x="1379" y="827" fill="#c9d1d9">]</text>
</svg>
